<svg id="Lager_1" data-name="Lager 1" xmlns="http://www.w3.org/2000/svg" viewBox="0 0 999.86 792.44"><defs><style>.cls-1{fill:#fff;}</style></defs><title>ebaer</title><path d="M960,792.44H0V781.6C.65,779,1.31,776.48,1.69,775c2.43,2,5,4.1,7.6,6.15,4.73,3.7,9.88,6.16,16.12,5.26,4.8-.69,9.61-1.31,14.39-2.09a10.71,10.71,0,0,0,3.72-1.4c1.95-1.15,3.65-2.79,5.69-3.73,3.39-1.57,7-2.63,10.45-4.11,9.7-4.18,14.24-15.09,9.92-24.37-2.38,1-4.76,2-7.21,2.91-5.08,1.78-10.08,4.09-15.32,5-9.18,1.67-15.93-4.47-16-13.75,0-2.21.67-4.89-.33-6.53-4.16-6.87-3.23-13.12.38-19.9,2.11-4,4.47-6.13,8.93-5.48,10.49,1.52,19.42-4.23,29.16-6.18a3.82,3.82,0,0,0,1.09-.61c10.29-6.22,20-13,26.26-23.77a6.82,6.82,0,0,1,2-2.12c2.67-1.86,2.39-3.61.79-6.3a15.63,15.63,0,0,1-2.34-8.42c.22-3.78,1.56-7.55,2.81-11.2A15.18,15.18,0,0,0,99.27,643c-3.29-7.85-10-9.16-17.21-8.74-15.31.89-29.18,6.15-42,14.43-3,1.94-6.51,3.14-9.78,4.68,22.41-75.72,54.15-146.25,101.94-209.1-25.6,10.52-49.05,24.15-69.16,43.27a30,30,0,0,1,2.45-5.83,635.21,635.21,0,0,1,60.61-94.05c20.36-26,42.71-50.07,69.58-69.57,5.24-3.79,10.72-7.26,16.08-10.87C184,313,158.49,324.13,134.37,338.9c44.83-77.53,108.07-134.75,188.94-172.31a8.09,8.09,0,0,0-.19-1.27c-.5-1.15-1.05-2.27-1.55-3.42-8.88-20.61-14.3-41.91-10.38-64.44,4.46-25.67,18.51-44.08,43.7-52.48,16.49-5.5,33.22-3.88,49.58,1.22,15,4.69,28.79,11.72,39.71,23.44,1.47,1.59,2.76,3.33,4.27,5.16a128.74,128.74,0,0,1,41.3-19.33c0-.54.08-1.08.11-1.61L456,42.59C493,31.47,529.5,22.16,569,22.6,559.87,14.08,550.46,8.34,539.44,5A24.23,24.23,0,0,1,546,3.58c16.22-.71,32.44-1.9,48.66-1.87,51.25.11,99.88,11.44,145.46,35.22a9.32,9.32,0,0,0,5.87.9c29.37-6.8,59.23-9,89.25-9.74a12.27,12.27,0,0,0,6-2.09c10.8-7,21.49-14.25,32.23-21.37,3.86-2.55,8.11-3.17,12.72-2.86a153,153,0,0,1,49.62,11.68c26.53,11.21,47.07,29.08,60.08,55.06.86,1.72,1.56,4.14,1,5.83-3.06,10-6.58,19.77-13.47,27.93a6.11,6.11,0,0,0-1.31,3.68,820.77,820.77,0,0,1-4.63,95.61c-3.5,32.22-9,64-19,94.95-1.9,5.86-4.19,11.6-6.48,17.86l-14.84-10.86c24.64,68.89,32.06,138.71,28.3,210-10.77-10.24-20.31-21.34-32.9-30.34a24.81,24.81,0,0,0,0,2.61,392.35,392.35,0,0,1,3.78,66.85,432.43,432.43,0,0,1-9.24,78.88c-.56,2.65-1.88,3.63-4.49,4.5-8.26,2.77-16.39,5.94-24.41,9.33-5,2.14-9.85,4.91-14.7,7.5a9.22,9.22,0,0,0-3.14,2.6c-7.21,10-14.15,20.26-21.51,30.18a54.2,54.2,0,0,0-10.61,28.06c-.85,9.54-1.42,19.11-2.11,28.66-.24,3.29-1.2,6.73-.58,9.85a50.73,50.73,0,0,0,16.71,29.07c4.4,3.83,9.67,5.93,15.75,5.05,4.8-.69,9.61-1.31,14.39-2.08a11.12,11.12,0,0,0,3.7-1.41c2-1.15,3.67-2.78,5.71-3.72,3.39-1.57,7-2.64,10.45-4.11,9.74-4.19,14.11-14.61,10-24.37-2.27.9-4.54,1.84-6.83,2.71-4.53,1.7-9,4-13.64,4.92-11.75,2.44-18.8-4-18.16-15.86.08-1.48.37-3.49-.42-4.38-3.16-3.57-3.15-8-2.42-11.85a28.37,28.37,0,0,1,5.6-11.8c1.24-1.56,5.17-1.65,7.76-1.36,10.11,1.1,18.87-3.67,27.76-6.78,6.41-2.24,11.67-7.81,17.43-11.9.83-.58,1.64-1.2,2.87-2.1,2.11,6.3,4.18,12,6,17.86C956.39,737,962.47,764.09,960,792.44Zm-351-565.81,1,.91c-18,49.46-24,100.51-19.92,152.76S608.66,481.75,632.71,529c.31-1.13.49-1.41.44-1.65-.18-1-.42-1.89-.67-2.83A441.93,441.93,0,0,1,618,420a403,403,0,0,1,7.36-87c9.51-48.62,28-93.43,56.53-134,.79-1.13,1.73-2.16,2.59-3.24A90.18,90.18,0,0,1,682,209.53c-1.06,4.6-2.15,9.2-3.07,13.82-.85,4.31-1.51,8.66-2.25,13a8.44,8.44,0,0,0,3.2-3.17,231.47,231.47,0,0,1,37.1-43.72c19.47-17.72,41.14-32,66.94-38.26,37.56-9.17,74.59-5.22,110.41,8.27,25.22,9.49,40.87,28.51,47.58,54.6,2.1,8.16,3.45,16.51,5.22,25.15a29.88,29.88,0,0,0,1.38-3.09c6.82-22.31,13.14-44.78,16.29-67.93a167.83,167.83,0,0,0,1.43-31.91c-.92-16.19-14.22-23.74-29.12-17.16-3.87,1.7-7.3,4.49-10.72,7-3.64,2.73-7,5.78-10.53,8.69,0-.09-.7-1.41-1.46-2.67-5.9-9.88-11.26-20.13-17.85-29.52A124.69,124.69,0,0,0,852.44,63.4c-20.12-10.64-41.59-11.63-63.67-9.53C744.87,58.06,702.31,68.19,660.54,82l-12.79,4.22-.69-1c6.69-7,13.21-14.12,20.12-20.87s14.13-13,21.64-19.83c-1.33,0-2.13-.08-2.91,0-12,1.44-24,2.55-35.94,4.41A484,484,0,0,0,508.8,93.61c-40.91,20.33-77.61,46.46-108.8,80-54.35,58.44-82.81,128.63-93.22,206.87-4.08,30.61-5.85,61.42-3.77,92.23,1.86,27.53,5.15,55,7.84,82.43a18.3,18.3,0,0,0,.76,2.86,3.38,3.38,0,0,0,.84-2.1c1.79-24.22,3.08-48.48,5.45-72.64,3.21-32.64,8.79-64.92,17.81-96.51,6-21,13.48-41.45,25.53-59.91.77-1.18,1.67-2.28,3.1-4.21.46,56.23,11.47,109.33,31,160.78a479.55,479.55,0,0,0,82.23,140,7.22,7.22,0,0,0-.12-3.39c-14.15-54.08-23.05-108.86-21.82-165,.53-24.25,3.62-48.15,11.11-71.33,1.4-4.35,3.22-8.56,4.85-12.84l1.1.2c6.86,31.8,22,59.4,42,84.92.57-.77.85-1,.86-1.19,0-1.25,0-2.49,0-3.74-.25-38.91,5.27-76.94,17.75-113.85,12.41-36.73,31.29-69.53,59.6-96.44C598.08,235.87,603.65,231.34,609.05,226.63ZM259.13,673.28c-2-8-3-15.84-5.84-22.93C247.55,636,234,631,220.05,637.41c-4.53,2.08-8.75,4.85-13.32,6.84-8.35,3.65-16.69,7.43-25.33,10.23-6.61,2.15-7.31,1.09-6.37-5.67.19-1.37.38-2.75.69-4.1,6-25.67,12.22-51.29,17.91-77a308.31,308.31,0,0,0,5.68-34.42c.82-7.79-3.37-11.61-11.23-11.66-5.11,0-10.23.75-15.35,1-7.62.35-13.8,3.86-19.35,8.69a4,4,0,0,0-1.26,3c2,13.28,4.44,26.5,6.14,39.82a37.07,37.07,0,0,1-1,14.38,684.75,684.75,0,0,0-17,73.76c-3.84,22.82-9.75,45.29-14.73,67.92-2.81,12.77-2.38,25.41,2.08,37.73,4.14,11.44,12.49,17.55,24.6,18.85,4.3.46,7-.8,9.08-4.71,1-1.85,3.12-4,5-4.27,9.26-1.46,17.52-5.16,25.33-10.07,14.83-9.33,27.37-21.24,38.81-34.4a24.73,24.73,0,0,1,6-5A23.24,23.24,0,0,0,247,715.87c2-5.34,4.31-10.57,5.81-16C255.18,691.07,257,682.14,259.13,673.28ZM374.87,632.2c-1.43,1.36-3.32,3.41-5.48,5.14-5.81,4.67-11.81,9.12-20,6.73A12.78,12.78,0,0,0,337,646.82c-15.31,12.81-30.64,25.61-45.65,38.76-2.36,2.07-3.32,5.86-4.62,9-1.2,2.9-1.56,6.21-3.05,8.92-4.78,8.64-8.33,17.73-8.71,27.56-.45,11.9.23,23.84,0,35.76-.07,4.08,1.56,6.29,4.79,8.35,2.45,1.58,5.1,3.71,6.27,6.24,2.74,5.94,3.28,6.44,9.15,3.31a19.85,19.85,0,0,0,3.55-2.15c13.6-11.6,27.22-23.19,40.69-34.95,1.54-1.35,2.11-3.77,3.28-5.59.84-1.31,2.27-3.61,2.87-3.44,1.61.45,3.79,1.76,4.16,3.14.64,2.43.14,5.18,0,7.79-.43,10.08-1.2,20.16-1.2,30.24,0,4.77,1.73,5.89,6.46,5.3,3.1-.39,6.56-1,9-2.77,10.1-7,19.88-14.53,29.74-21.9a14.71,14.71,0,0,0,2.11-2.75c-2.28-1.53-4.27-3.3-6.57-4.35-8.23-3.75-12.21-10.2-12.45-19a59.68,59.68,0,0,1,.47-12c2.83-16,5.76-31.88,9.08-47.73,2-9.5,4.59-18.88,7.22-28.22,1-3.61,0-5.32-3.32-6.71C385.31,637.43,380.47,634.88,374.87,632.2ZM494.11,750.63c-2.52,1-5,2.16-7.58,3.06-5.08,1.76-10.1,3.95-15.34,5-6.9,1.34-14.66-3.37-15.31-9.08s-.8-11.23-3-16.77c-1.77-4.53,0-9.25,2.3-13.85s4.93-6.16,9.87-6.13c7.58,0,15.38.24,21.84-5a2.2,2.2,0,0,1,1.56-.41c4.29.62,7.38-1.89,10.61-4,8.7-5.63,16.75-11.92,21.91-21.21a5.62,5.62,0,0,1,1.72-1.78c2.8-2,2.44-3.77.82-6.64a17.59,17.59,0,0,1-2-9.24c.23-3.64,2.23-7.14,2.66-10.8.4-3.44.51-7.25-.56-10.47-2.68-8-9.62-9.36-16.93-9-14.29.74-27.35,5.48-39.61,12.73-3.53,2.09-7.41,3.6-11,5.6a13.45,13.45,0,0,0-4.35,3.59c-6.13,8.41-11.7,17.26-18.19,25.37a64.07,64.07,0,0,0-14.15,37.51c-.26,4.71-.46,9.43-.84,14.14-.46,5.65-2.13,11.43-1.43,16.91A47.47,47.47,0,0,0,436,782.74a17.68,17.68,0,0,0,13.73,3.64c4.78-.76,9.6-1.3,14.38-2.11a12.26,12.26,0,0,0,4-1.66c1.61-1,2.94-2.44,4.62-3.18,3.67-1.62,7.54-2.79,11.23-4.38C493.77,770.83,498,760.78,494.11,750.63ZM599.62,648.39c-6.43-4.23-12.31-8.37-18.5-12-1.53-.89-4.44-.67-6.08.21a64.77,64.77,0,0,0-9.87,6.9c-7.25,5.82-7.42,6-3.8,14.51,3.2,7.53,3.36,15,1.33,22.79a169.13,169.13,0,0,0-3.49,16.68c-3.7,23.85-7.38,47.71-10.69,71.62a40,40,0,0,0,1,13.88c.89,4,3.62,4.67,7,2.34a31.51,31.51,0,0,1,21.3-5.47,6,6,0,0,0,4.23-1.82c3.43-3.71,6.57-7.68,9.94-11.69-5.89-7.46-7.78-16.45-7.69-26,.21-21.8,10.12-39.72,23-56.37,3.77-4.89,8.12-7.37,15.1-5.5,10.85,2.9,22.77-7.34,22.78-18.57a2.85,2.85,0,0,0-.31-1.61c-3.13-4.19-1.77-7.72,2-10.89-1.93-3.13-3.57-6-5.43-8.76-2.5-3.68-6.11-5-10.17-3.2-11.12,5-21.54,11-26.42,23.24a51.26,51.26,0,0,1-3.92,7.8c-1.89,3.08-4.13,3.39-5.57.21A31.26,31.26,0,0,1,593,654.82c0-1.31,3-2.67,4.57-4.05C598,650.34,598.4,649.79,599.62,648.39Zm214.54-1.23c2.42-2.09,4.63-3.61,6.34-5.56,2.66-3.05,2-5.18-1.93-5.49-10.76-.82-21.56-1.72-32.33-1.63-7.18.06-14.31,1.85-20.34,6.39-2,1.48-3.18,3.09-2,5.64s0,3.83-2.23,4.89A21,21,0,0,0,750.11,665a181.24,181.24,0,0,0-4.42,23.16c-1.4,10.29,2.53,18.16,11.19,24.22,8.88,6.22,17,13.5,22.21,23.3C785,746.82,781,756,768.83,759.47c-7.8,2.22-12,.72-16.5-6a7.16,7.16,0,0,0-8-3.22c-3.89.86-8.63.4-9.85,5.93a66,66,0,0,1-2.85,10.39c-1.85,4.62-1.75,7.74,2.69,9.78a92.42,92.42,0,0,0,18.74,6.15c5.7,1.25,11.06-.43,16-4.09,10.57-7.87,21.07-16,32.31-22.76,6.12-3.71,9.17-8.3,10.43-14.79.19-.95.46-1.89.7-2.83,2-8,1.28-15.6-4-22.1-4.86-6-10.29-11.58-15.48-17.34-5-5.55-10.42-10.79-14.92-16.72-4.74-6.26-4-12.83.79-18.69,5.37-6.48,9.91-7.61,18-4.46,1.16.45,2.3,1,3.44,1.46,8.93,4.07,8.91,4.07,13.65-4.48C815.66,652.9,817.62,650.16,814.16,647.16ZM422.27,104.47C417,94,400.9,81.55,389.13,79c-21.15-4.52-38.34,7.39-41.6,28.75-2,13.24.49,26,4.12,38.57.16.55.73,1,1.36,1.81,8.34-11.28,19.21-19,31.63-25.93l-17.43-9,.25-1.52,29.68-2.38L383.7,99.9a7.06,7.06,0,0,1,4.22-.77Q405.13,101.76,422.27,104.47Zm245.43,658c.29,5.32,1.14,7.2,5.88,12.14,5.87,6.11,15,7.86,21.65,4.17,8.86-4.92,16.84-20.35,15.71-30.38-.88-7.82-7.51-15-15.08-16.29-6.65-1.15-11.74,2-15.72,10.13-1.39,2.85-3.15,4.63-6.31,5.36a5,5,0,0,0-3.06,2.86C669.51,754.38,668.69,758.45,667.7,762.46Z"/><path class="cls-1" d="M960,792.44c2.47-28.35-3.61-55.49-11.77-82.31-1.77-5.83-3.84-11.56-6-17.86-1.23.9-2,1.52-2.87,2.1-5.76,4.09-11,9.66-17.43,11.9-8.89,3.11-17.65,7.88-27.76,6.78-2.59-.29-6.52-.2-7.76,1.36a28.37,28.37,0,0,0-5.6,11.8c-.73,3.84-.74,8.28,2.42,11.85.79.89.5,2.9.42,4.38-.64,11.88,6.41,18.3,18.16,15.86,4.69-1,9.11-3.22,13.64-4.92,2.29-.87,4.56-1.81,6.83-2.71,4.11,9.76-.26,20.18-10,24.37-3.44,1.47-7.06,2.54-10.45,4.11-2,.94-3.75,2.57-5.71,3.72a11.12,11.12,0,0,1-3.7,1.41c-4.78.77-9.59,1.39-14.39,2.08-6.08.88-11.35-1.22-15.75-5.05a50.73,50.73,0,0,1-16.71-29.07c-.62-3.12.34-6.56.58-9.85.69-9.55,1.26-19.12,2.11-28.66a54.2,54.2,0,0,1,10.61-28.06c7.36-9.92,14.3-20.15,21.51-30.18a9.22,9.22,0,0,1,3.14-2.6c4.85-2.59,9.65-5.36,14.7-7.5,8-3.39,16.15-6.56,24.41-9.33,2.61-.87,3.93-1.85,4.49-4.5a432.43,432.43,0,0,0,9.24-78.88,392.35,392.35,0,0,0-3.78-66.85,24.81,24.81,0,0,1,0-2.61c12.59,9,22.13,20.1,32.9,30.34,3.76-71.34-3.66-141.16-28.3-210l14.84,10.86c2.29-6.26,4.58-12,6.48-17.86,10-30.91,15.48-62.73,19-94.95A820.77,820.77,0,0,0,982.15,106a6.11,6.11,0,0,1,1.31-3.68c6.89-8.16,10.41-18,13.47-27.93.52-1.69-.18-4.11-1-5.83-13-26-33.55-43.85-60.08-55.06A153,153,0,0,0,886.19,1.77c-4.61-.31-8.86.31-12.72,2.86C862.73,11.75,852,19,841.24,26a12.27,12.27,0,0,1-6,2.09c-30,.77-59.88,2.94-89.25,9.74a9.32,9.32,0,0,1-5.87-.9C694.54,13.15,645.91,1.82,594.66,1.71c-16.22,0-32.44,1.16-48.66,1.87A24.23,24.23,0,0,0,539.44,5c11,3.37,20.43,9.11,29.56,17.63-39.5-.44-76.05,8.87-113,20l33.83,11.27c0,.53-.07,1.07-.11,1.61a128.74,128.74,0,0,0-41.3,19.33c-1.51-1.83-2.8-3.57-4.27-5.16C433.26,57.92,419.5,50.89,404.47,46.2c-16.36-5.1-33.09-6.72-49.58-1.22-25.19,8.4-39.24,26.81-43.7,52.48-3.92,22.53,1.5,43.83,10.38,64.44.5,1.15,1.05,2.27,1.55,3.42a8.09,8.09,0,0,1,.19,1.27C242.44,204.15,179.2,261.37,134.37,338.9,158.49,324.13,184,313,211.74,307.25c-5.36,3.61-10.84,7.08-16.08,10.87-26.87,19.5-49.22,43.56-69.58,69.57a635.21,635.21,0,0,0-60.61,94.05A30,30,0,0,0,63,487.57c20.11-19.12,43.56-32.75,69.16-43.27C84.39,507.15,52.65,577.68,30.24,653.4c3.27-1.54,6.77-2.74,9.78-4.68,12.86-8.28,26.73-13.54,42-14.43,7.26-.42,13.92.89,17.21,8.74a15.18,15.18,0,0,1,.43,11.32c-1.25,3.65-2.59,7.42-2.81,11.2A15.63,15.63,0,0,0,99.23,674c1.6,2.69,1.88,4.44-.79,6.3a6.82,6.82,0,0,0-2,2.12c-6.21,10.75-16,17.55-26.26,23.77a3.82,3.82,0,0,1-1.09.61c-9.74,2-18.67,7.7-29.16,6.18-4.46-.65-6.82,1.52-8.93,5.48-3.61,6.78-4.54,13-.38,19.9,1,1.64.3,4.32.33,6.53.12,9.28,6.87,15.42,16,13.75,5.24-1,10.24-3.26,15.32-5,2.45-.87,4.83-1.94,7.21-2.91,4.32,9.28-.22,20.19-9.92,24.37-3.44,1.48-7.06,2.54-10.45,4.11-2,.94-3.74,2.58-5.69,3.73a10.71,10.71,0,0,1-3.72,1.4c-4.78.78-9.59,1.4-14.39,2.09-6.24.9-11.39-1.56-16.12-5.26-2.61-2.05-5.17-4.18-7.6-6.15C1.31,776.48.65,779,0,781.6V0H999.86V792.44ZM43.11,697.11c5.85.6,11.12-1.93,15.55-6.67a80.41,80.41,0,0,1,8.85-8.76c5.78-4.52,5-16.18,1.63-20.73-3.13-4.25-7.85-6.13-12.35-3.37A37.59,37.59,0,0,0,45.6,667.67c-4.06,5.87-7.19,12.47-10.12,19C31.58,695.39,32.87,697.06,43.11,697.11Zm852.28,0c9.64,0,12-1.53,15.34-10.61,2.89-8,5.58-16,8.25-24,1.31-3.92.37-5.64-3.69-5.76-2.63-.08-5.8.37-7.83,1.83a36.15,36.15,0,0,0-9.33,9.25,140.21,140.21,0,0,0-9.89,18.75C884.25,695.51,885.48,697.08,895.39,697.11Z"/><path class="cls-1" d="M609.05,226.63c-5.4,4.71-11,9.24-16.17,14.17-28.31,26.91-47.19,59.71-59.6,96.44-12.48,36.91-18,74.94-17.75,113.85,0,1.25,0,2.49,0,3.74,0,.22-.29.42-.86,1.19-20-25.52-35.12-53.12-42-84.92l-1.1-.2c-1.63,4.28-3.45,8.49-4.85,12.84-7.49,23.18-10.58,47.08-11.11,71.33-1.23,56.11,7.67,110.89,21.82,165a7.22,7.22,0,0,1,.12,3.39,479.55,479.55,0,0,1-82.23-140c-19.49-51.45-30.5-104.55-31-160.78-1.43,1.93-2.33,3-3.1,4.21-12.05,18.46-19.53,38.89-25.53,59.91-9,31.59-14.6,63.87-17.81,96.51-2.37,24.16-3.66,48.42-5.45,72.64a3.38,3.38,0,0,1-.84,2.1,18.3,18.3,0,0,1-.76-2.86c-2.69-27.47-6-54.9-7.84-82.43-2.08-30.81-.31-61.62,3.77-92.23,10.41-78.24,38.87-148.43,93.22-206.87,31.19-33.54,67.89-59.67,108.8-80A484,484,0,0,1,650,49c11.92-1.86,24-3,35.94-4.41.78-.09,1.58,0,2.91,0C681.31,51.41,674,57.7,667.18,64.39s-13.43,13.9-20.12,20.87l.69,1L660.54,82c41.77-13.82,84.33-24,128.23-28.14,22.08-2.1,43.55-1.11,63.67,9.53a124.69,124.69,0,0,1,44.07,39.27c6.59,9.39,12,19.64,17.85,29.52.76,1.26,1.43,2.58,1.46,2.67,3.49-2.91,6.89-6,10.53-8.69,3.42-2.56,6.85-5.35,10.72-7,14.9-6.58,28.2,1,29.12,17.16a167.83,167.83,0,0,1-1.43,31.91c-3.15,23.15-9.47,45.62-16.29,67.93a29.88,29.88,0,0,1-1.38,3.09c-1.77-8.64-3.12-17-5.22-25.15-6.71-26.09-22.36-45.11-47.58-54.6C858.47,146,821.44,142,783.88,151.19c-25.8,6.3-47.47,20.54-66.94,38.26a231.47,231.47,0,0,0-37.1,43.72,8.44,8.44,0,0,1-3.2,3.17c.74-4.33,1.4-8.68,2.25-13,.92-4.62,2-9.22,3.07-13.82a90.18,90.18,0,0,0,2.48-13.74c-.86,1.08-1.8,2.11-2.59,3.24-28.51,40.59-47,85.4-56.53,134A403,403,0,0,0,618,420a441.93,441.93,0,0,0,14.52,104.51c.25.94.49,1.88.67,2.83.05.24-.13.52-.44,1.65-24.05-47.26-38.53-96.52-42.59-148.71S592,277,610,227.54Z"/><path class="cls-1" d="M259.13,673.28c-2.09,8.86-3.95,17.79-6.35,26.55-1.5,5.47-3.85,10.7-5.81,16a23.24,23.24,0,0,1-10.5,12.45,24.73,24.73,0,0,0-6,5c-11.44,13.16-24,25.07-38.81,34.4-7.81,4.91-16.07,8.61-25.33,10.07-1.89.3-4.05,2.42-5,4.27-2.05,3.91-4.78,5.17-9.08,4.71-12.11-1.3-20.46-7.41-24.6-18.85-4.46-12.32-4.89-25-2.08-37.73,5-22.63,10.89-45.1,14.73-67.92a684.75,684.75,0,0,1,17-73.76,37.07,37.07,0,0,0,1-14.38c-1.7-13.32-4.13-26.54-6.14-39.82a4,4,0,0,1,1.26-3c5.55-4.83,11.73-8.34,19.35-8.69,5.12-.24,10.24-1,15.35-1,7.86,0,12,3.87,11.23,11.66a308.31,308.31,0,0,1-5.68,34.42c-5.69,25.74-11.92,51.36-17.91,77-.31,1.35-.5,2.73-.69,4.1-.94,6.76-.24,7.82,6.37,5.67,8.64-2.8,17-6.58,25.33-10.23,4.57-2,8.79-4.76,13.32-6.84,13.91-6.38,27.5-1.4,33.24,12.94C256.12,657.44,257.15,665.25,259.13,673.28Zm-88.65,76.89c6.8,0,12.59-1.93,17.18-5.77,7.2-6,13.87-12.67,20.56-19.27,4.13-4.08,5.65-9.4,6.06-15.12.52-7.19,1.59-14.36,1.63-21.55a43.6,43.6,0,0,0-2.16-14.6c-3.48-9.91-13.15-13.16-21.83-7.13-5,3.49-10,7.89-13.19,13-8.09,13-15.31,26.63-22.58,40.16-4,7.38-2.34,14.84,1.18,22C160.1,747.48,164.72,750.3,170.48,750.17Z"/><path class="cls-1" d="M374.87,632.2c5.6,2.68,10.44,5.23,15.47,7.33,3.31,1.39,4.34,3.1,3.32,6.71-2.63,9.34-5.24,18.72-7.22,28.22-3.32,15.85-6.25,31.78-9.08,47.73a59.68,59.68,0,0,0-.47,12c.24,8.84,4.22,15.29,12.45,19,2.3,1.05,4.29,2.82,6.57,4.35a14.71,14.71,0,0,1-2.11,2.75c-9.86,7.37-19.64,14.85-29.74,21.9-2.46,1.72-5.92,2.38-9,2.77-4.73.59-6.46-.53-6.46-5.3,0-10.08.77-20.16,1.2-30.24.11-2.61.61-5.36,0-7.79-.37-1.38-2.55-2.69-4.16-3.14-.6-.17-2,2.13-2.87,3.44-1.17,1.82-1.74,4.24-3.28,5.59C326,759.36,312.35,771,298.75,782.55a19.85,19.85,0,0,1-3.55,2.15c-5.87,3.13-6.41,2.63-9.15-3.31-1.17-2.53-3.82-4.66-6.27-6.24-3.23-2.06-4.86-4.27-4.79-8.35.21-11.92-.47-23.86,0-35.76.38-9.83,3.93-18.92,8.71-27.56,1.49-2.71,1.85-6,3.05-8.92,1.3-3.12,2.26-6.91,4.62-9,15-13.15,30.34-26,45.65-38.76a12.78,12.78,0,0,1,12.43-2.75c8.15,2.39,14.15-2.06,20-6.73C371.55,635.61,373.44,633.56,374.87,632.2Zm-70.41,95.66c1.11,6,1.5,11.86,3.4,17.19,1.79,5,3.9,5.45,8.33,2.3,12.17-8.66,24.22-17.25,28.46-33.15,2.15-8.08,6.67-15.52,10-23.29,3.64-8.46,6.65-17.09,6.37-26.49-.19-6.38-2.56-8.44-8.92-7.79a13.11,13.11,0,0,0-3.65.76c-15.77,6.46-27.72,17.12-35.12,32.57-1,2.06-1.08,4.55-1.55,6.85-.71,3.53-1.25,7.09-2.1,10.58C308.05,714.18,306.24,720.94,304.46,727.86Z"/><path class="cls-1" d="M494.11,750.63c3.93,10.15-.34,20.2-10.15,24.42-3.69,1.59-7.56,2.76-11.23,4.38-1.68.74-3,2.23-4.62,3.18a12.26,12.26,0,0,1-4,1.66c-4.78.81-9.6,1.35-14.38,2.11A17.68,17.68,0,0,1,436,782.74a47.47,47.47,0,0,1-18.89-32.61c-.7-5.48,1-11.26,1.43-16.91.38-4.71.58-9.43.84-14.14a64.07,64.07,0,0,1,14.15-37.51c6.49-8.11,12.06-17,18.19-25.37a13.45,13.45,0,0,1,4.35-3.59c3.59-2,7.47-3.51,11-5.6,12.26-7.25,25.32-12,39.61-12.73,7.31-.38,14.25,1,16.93,9,1.07,3.22,1,7,.56,10.47-.43,3.66-2.43,7.16-2.66,10.8a17.59,17.59,0,0,0,2,9.24c1.62,2.87,2,4.68-.82,6.64a5.62,5.62,0,0,0-1.72,1.78c-5.16,9.29-13.21,15.58-21.91,21.21-3.23,2.1-6.32,4.61-10.61,4a2.2,2.2,0,0,0-1.56.41c-6.46,5.26-14.26,5.06-21.84,5-4.94,0-7.58,1.66-9.87,6.13s-4.07,9.32-2.3,13.85c2.18,5.54,2.34,11.1,3,16.77s8.41,10.42,15.31,9.08c5.24-1,10.26-3.2,15.34-5C489.1,752.79,491.59,751.66,494.11,750.63Zm-26.46-53.52c5.72.54,10.89-1.84,15.21-6.51,2.82-3.05,5.85-5.9,8.79-8.83,5-5,6-14.11,2.24-20.23-2.95-4.77-8-6.83-12.81-3.91a37.33,37.33,0,0,0-11.14,10.15c-4,5.75-7,12.23-9.92,18.65C456,695.39,457.25,697.07,467.65,697.11Z"/><path class="cls-1" d="M599.62,648.39c-1.22,1.4-1.61,2-2.1,2.38-1.59,1.38-4.61,2.74-4.57,4.05a31.26,31.26,0,0,0,2.35,11.94c1.44,3.18,3.68,2.87,5.57-.21a51.26,51.26,0,0,0,3.92-7.8c4.88-12.24,15.3-18.2,26.42-23.24,4.06-1.84,7.67-.48,10.17,3.2,1.86,2.74,3.5,5.63,5.43,8.76-3.77,3.17-5.13,6.7-2,10.89a2.85,2.85,0,0,1,.31,1.61c0,11.23-11.93,21.47-22.78,18.57-7-1.87-11.33.61-15.1,5.5-12.85,16.65-22.76,34.57-23,56.37-.09,9.51,1.8,18.5,7.69,26-3.37,4-6.51,8-9.94,11.69a6,6,0,0,1-4.23,1.82,31.51,31.51,0,0,0-21.3,5.47c-3.37,2.33-6.1,1.61-7-2.34a40,40,0,0,1-1-13.88c3.31-23.91,7-47.77,10.69-71.62a169.13,169.13,0,0,1,3.49-16.68c2-7.8,1.87-15.26-1.33-22.79-3.62-8.53-3.45-8.69,3.8-14.51a64.77,64.77,0,0,1,9.87-6.9c1.64-.88,4.55-1.1,6.08-.21C587.31,640,593.19,644.16,599.62,648.39Z"/><path class="cls-1" d="M814.16,647.16c3.46,3,1.5,5.74-.08,8.58-4.74,8.55-4.72,8.55-13.65,4.48-1.14-.51-2.28-1-3.44-1.46-8.14-3.15-12.68-2-18,4.46-4.84,5.86-5.53,12.43-.79,18.69,4.5,5.93,9.92,11.17,14.92,16.72,5.19,5.76,10.62,11.32,15.48,17.34,5.25,6.5,6,14.13,4,22.1-.24.94-.51,1.88-.7,2.83-1.26,6.49-4.31,11.08-10.43,14.79-11.24,6.81-21.74,14.89-32.31,22.76-4.91,3.66-10.27,5.34-16,4.09a92.42,92.42,0,0,1-18.74-6.15c-4.44-2-4.54-5.16-2.69-9.78a66,66,0,0,0,2.85-10.39c1.22-5.53,6-5.07,9.85-5.93a7.16,7.16,0,0,1,8,3.22c4.55,6.68,8.7,8.18,16.5,6C781,756,785,746.82,779.09,735.68c-5.2-9.8-13.33-17.08-22.21-23.3-8.66-6.06-12.59-13.93-11.19-24.22A181.24,181.24,0,0,1,750.11,665a21,21,0,0,1,11.51-13.6c2.23-1.06,3.33-2.42,2.23-4.89s.09-4.16,2-5.64c6-4.54,13.16-6.33,20.34-6.39,10.77-.09,21.57.81,32.33,1.63,3.94.31,4.59,2.44,1.93,5.49C818.79,643.55,816.58,645.07,814.16,647.16Z"/><path class="cls-1" d="M422.27,104.47q-17.13-2.68-34.35-5.34a7.06,7.06,0,0,0-4.22.77l13.44,9.46-29.68,2.38-.25,1.52,17.43,9c-12.42,6.91-23.29,14.65-31.63,25.93-.63-.83-1.2-1.26-1.36-1.81-3.63-12.61-6.15-25.33-4.12-38.57C350.79,86.42,368,74.51,389.13,79,400.9,81.55,417,94,422.27,104.47Z"/><path class="cls-1" d="M667.7,762.46c1-4,1.81-8.08,3.07-12a5,5,0,0,1,3.06-2.86c3.16-.73,4.92-2.51,6.31-5.36,4-8.14,9.07-11.28,15.72-10.13,7.57,1.3,14.2,8.47,15.08,16.29,1.13,10-6.85,25.46-15.71,30.38-6.66,3.69-15.78,1.94-21.65-4.17C668.84,769.66,668,767.78,667.7,762.46Z"/><path d="M43.11,697.11c-10.24-.05-11.53-1.72-7.63-10.42,2.93-6.55,6.06-13.15,10.12-19a37.59,37.59,0,0,1,11.19-10.09c4.5-2.76,9.22-.88,12.35,3.37,3.34,4.55,4.15,16.21-1.63,20.73a80.41,80.41,0,0,0-8.85,8.76C54.23,695.18,49,697.71,43.11,697.11Z"/><path d="M895.39,697.11c-9.91,0-11.14-1.6-7.15-10.53a140.21,140.21,0,0,1,9.89-18.75,36.15,36.15,0,0,1,9.33-9.25c2-1.46,5.2-1.91,7.83-1.83,4.06.12,5,1.84,3.69,5.76-2.67,8-5.36,16-8.25,24C907.43,695.58,905,697.13,895.39,697.11Z"/><path d="M170.48,750.17c-5.76.13-10.38-2.69-13.15-8.31-3.52-7.12-5.15-14.58-1.18-22,7.27-13.53,14.49-27.13,22.58-40.16,3.18-5.12,8.17-9.52,13.19-13,8.68-6,18.35-2.78,21.83,7.13a43.6,43.6,0,0,1,2.16,14.6c0,7.19-1.11,14.36-1.63,21.55-.41,5.72-1.93,11-6.06,15.12-6.69,6.6-13.36,13.26-20.56,19.27C183.07,748.24,177.28,750.21,170.48,750.17Z"/><path d="M304.46,727.86c1.78-6.92,3.59-13.68,5.24-20.47.85-3.49,1.39-7,2.1-10.58.47-2.3.57-4.79,1.55-6.85,7.4-15.45,19.35-26.11,35.12-32.57a13.11,13.11,0,0,1,3.65-.76c6.36-.65,8.73,1.41,8.92,7.79.28,9.4-2.73,18-6.37,26.49-3.35,7.77-7.87,15.21-10,23.29-4.24,15.9-16.29,24.49-28.46,33.15-4.43,3.15-6.54,2.71-8.33-2.3C306,739.72,305.57,733.84,304.46,727.86Z"/><path d="M467.65,697.11c-10.4,0-11.65-1.72-7.63-10.68,2.88-6.42,5.94-12.9,9.92-18.65a37.33,37.33,0,0,1,11.14-10.15c4.77-2.92,9.86-.86,12.81,3.91,3.79,6.12,2.77,15.23-2.24,20.23-2.94,2.93-6,5.78-8.79,8.83C478.54,695.27,473.37,697.65,467.65,697.11Z"/></svg>